# xmcd
#
# Track frame offsets:
#	150
#	22704
#	39255
#	58024
#	77482
#	96296
#	121608
#	136954
#	150172
#	166208
#	192839
#	212689
#	230866
#	249638
#	269205
#	290663
#	310393
#	328008
#
# Disc length: 4663 seconds
#
# Revision: 1
# Processed by: cddbd v1.5.2PL0 Copyright (c) Steve Scherf et al.
# Submitted via: audiograbber 1.83.01
#
DISCID=f5123512
DTITLE=Bruce Springsteen - Devils and Dust CD1
DYEAR=2005
DGENRE=
TTITLE0=Devils and Dust
TTITLE1=All The Way Home
TTITLE2=Reno
TTITLE3=Long Time Comin'
TTITLE4=Black Cowboys
TTITLE5=Maria's Bed
TTITLE6=Silver Palomino
TTITLE7=Jesus Was An Only Son
TTITLE8=Leah
TTITLE9=The Hitter
TTITLE10=All I'm Thinkin' About
TTITLE11=Matamoras Banks
TTITLE12=Lonesome Day
TTITLE13=Waitin' On A Sunny Day
TTITLE14=Countin' On A Miracle
TTITLE15=Let's Be Friends
TTITLE16=Further On
TTITLE17=The Rising
EXTD=
EXTT0=
EXTT1=
EXTT2=
EXTT3=
EXTT4=
EXTT5=
EXTT6=
EXTT7=
EXTT8=
EXTT9=
EXTT10=
EXTT11=
EXTT12=
EXTT13=
EXTT14=
EXTT15=
EXTT16=
EXTT17=
PLAYORDER=
